<?xml version="1.0" encoding="UTF-8"?> <svg enable-background="new 0 0 106.9 114.2" version="1.1" viewBox="0 0 106.9 114.2" xml:space="preserve" xmlns="http://www.w3.org/2000/svg"> <style type="text/css"> .st0{fill:#002664;} .st1{fill:#FFFFFF;} .st2{fill:#D7153A;} </style> <path class="st0" d="M29,88.2L12.7,69H5.8v30.1h6.7V79.9l16.2,19.2h6.9V69H29V88.2z M93.5,69L89,88.3L84.4,69h-6.4L73.2,88L68.8,69   h-7l7.8,30.1h6.9L81.1,80l4.6,19.1h6.8l0.1-0.3l7.8-29.9L93.5,69z"/> <path class="st0" d="m5.1 108.3c0-2.6 2-4.8 4.6-4.8h0.1c1.3-0.1 2.6 0.4 3.6 1.3l-1 1.2c-0.7-0.7-1.6-1-2.6-1-1.7 0-3 1.5-3 3.3v0.1c0 1.9 1.3 3.3 3.2 3.3 0.8 0 1.6-0.2 2.2-0.7v-1.7h-2.4v-1.4h4v3.9c-1.1 0.9-2.4 1.5-3.9 1.5-2.9-0.2-4.8-2.2-4.8-5"/> <path class="st0" d="m14.8 108.3c0.1-2.7 2.3-4.8 5-4.8 2.6 0.1 4.6 2.1 4.7 4.7-0.1 2.7-2.3 4.8-5 4.8-2.6 0-4.7-2.1-4.7-4.7m7.9 0.1c0-1.8-1.3-3.3-3.2-3.3s-3.1 1.5-3.1 3.3 1.3 3.3 3.1 3.3c1.9-0.1 3.2-1.5 3.2-3.3"/> <polygon class="st0" points="24.3 103.7 26.1 103.7 28.9 110.8 31.7 103.7 33.5 103.7 29.6 113.1 28.2 113.1"/> <polygon class="st0" points="34.6 103.7 41.4 103.7 41.4 105.1 36.2 105.1 36.2 107.5 40.8 107.5 40.8 109 36.2 109 36.2 111.5 41.5 111.5 41.5 113 34.6 113"/> <path class="st0" d="m43.1 103.7h4.1c1-0.1 1.9 0.3 2.7 0.9 0.5 0.5 0.8 1.3 0.8 2 0 1.5-0.9 2.5-2.2 2.8l2.5 3.5h-2l-2.3-3.3h-2v3.2h-1.6v-9.1zm4 4.6c1.2 0 1.9-0.6 1.9-1.6s-0.7-1.5-1.9-1.5h-2.4v3.1h2.4z"/> <polygon class="st0" points="52.1 103.7 53.6 103.7 58.5 110.1 58.5 103.7 60.1 103.7 60.1 113 58.8 113 53.7 106.3 53.7 113 52.1 113"/> <polygon class="st0" points="61.8 103.7 63.5 103.7 66.3 108.1 69.2 103.7 70.9 103.7 70.9 113 69.3 113 69.3 106.3 66.3 110.7 66.3 110.7 63.4 106.3 63.4 113 61.8 113"/> <polygon class="st0" points="72.4 103.7 79.3 103.7 79.3 105.1 74.1 105.1 74.1 107.5 78.7 107.5 78.7 109 74.1 109 74.1 111.5 79.4 111.5 79.4 113 72.4 113"/> <polygon class="st0" points="81 103.7 82.5 103.7 87.4 110.1 87.4 103.7 89.1 103.7 89.1 113 87.7 113 82.6 106.3 82.6 113 81 113"/> <polygon class="st0" points="93.3 105.2 90.3 105.2 90.3 103.7 97.9 103.7 97.9 105.2 94.9 105.2 94.9 113 93.3 113"/> <path class="st0" d="m37.6 94.9l4-4.8c2.7 2.3 5.6 3.7 9.1 3.7 2.7 0 4.4-1.1 4.4-2.9v-0.1c0-1.7-1-2.6-6.1-3.9-6.1-1.6-10.1-3.3-10.1-9.4v-0.1c0-5.6 4.4-9.2 10.6-9.2 4.1-0.1 8.1 1.3 11.3 3.9l-3.5 5.1c-2.7-1.9-5.3-3-7.9-3s-3.9 1.2-3.9 2.7v0.1c0 2 1.3 2.7 6.6 4 6.2 1.6 9.6 3.9 9.6 9.2v0.1c0 6.1-4.6 9.5-11.2 9.5-4.8 0-9.4-1.7-12.9-4.9z"/> <path class="st1" d="m105.6 47.9c0-1.4-1.1-2.3-1.7-2.8s-3.4-2.6-8.8-5.7c0.4-0.5 0.6-0.8 1-1.4 1.9-2.7 3.7-5.5 4.5-8.8 0.2-0.8 0.6-2.6 0.3-3.5-0.4-1-1.3-1.8-2.3-2.1-2.3-0.6-10.5-0.1-11.1-0.1 0.1-3.6-0.2-7.1-0.9-10.6-0.2-0.9-0.6-2.3-1.6-2.8-1.8-0.7-3.7 0.3-5.2 1-2.1 1-3.7 1.8-5.9 2.9-1-3.7-2.1-7.2-2.5-8-0.3-0.6-0.7-1.8-1.9-2s-1.9 0.3-2.5 0.6c-1.1 0.7-5.8 4-7.3 5.3-1.1-1.8-1.7-3-2.7-4.6-0.4-0.6-1.4-2.3-2.1-3-0.7-0.8-1.9-0.9-2.7-0.2l-0.2 0.2c-0.7 0.7-1.7 2.4-2.1 3-1 1.6-1.7 2.8-2.7 4.6-1.6-1.3-6.3-4.7-7.3-5.3-0.6-0.4-1.3-0.9-2.5-0.6-1.2 0.2-1.6 1.4-1.9 2-0.4 0.9-1.5 4.4-2.5 8-2.3-1.2-3.8-2-5.9-2.9-1.5-0.7-3.5-1.7-5.2-1-1 0.4-1.4 1.8-1.6 2.8-0.7 3.5-1 7-0.9 10.6-1.2 0-9.4-0.5-11.7 0.1-1.1 0.3-1.9 1-2.3 2.1-0.3 0.9 0 2.7 0.3 3.5 0.8 3.3 2.6 6.1 4.5 8.8 0.4 0.6 0.6 0.8 1 1.4-5.3 3.1-8.2 5.2-8.8 5.7s-1.7 1.4-1.7 2.8c0 0.7 0.2 1.4 0.6 1.9 1 1.4 6.7 6.9 19.3 8.9-2.2 1.6-1.7 3.6-1.4 4.4 0.3 0.6 0.9 1.4 2.1 2 2 1.1 4.4 1.4 6.5 1.4 3 0.1 6.2-0.6 9.1-1.2 2.8-0.6 5.7-1.7 8.6-1.9 1.7-0.1 3.3 0 5 0.1 0.6 0 1.3 0.1 2.7 0.1 1.2 0 2.1-0.1 2.6-0.1 1.7-0.1 3.3-0.2 5-0.1 2.8 0.1 5.8 1.3 8.6 1.9 2.9 0.6 6.1 1.2 9.1 1.2 2.1 0 4.5-0.3 6.5-1.4 1.2-0.7 1.8-1.4 2.1-2 0.3-0.8 0.8-2.8-1.4-4.4 12.6-2 18.3-7.4 19.3-8.9 0.4-0.5 0.7-1.2 0.6-1.9z"/> <path class="st2" d="m72.5 20.6c1 5.1 1.6 10.2 1.6 15.4 0 5.3-0.6 10-1.9 14-1.1 3.4-3.1 6.4-6 8.5 5.4-0.2 10.3-3.6 13.7-9.6 4.5-7.9 5.4-17.8 5.6-25 0.2-8.2-0.5-10.2-0.7-11s-0.6-1.1-1.3-1.1c-1.4 0-7.2 2.6-12.6 6.6 0.8 0.4 1.3 1.1 1.6 2.2z"/> <path class="st2" d="m57.7 59.6c3.9-0.1 10.2-3.2 12.5-10.3 1.2-3.7 1.6-7.4 1.8-13.3 0.1-4.8-0.3-9.6-1.3-14.3-0.1-0.5-0.3-1.3-1-1.5-0.7-0.1-1.2 0.6-1.6 0.9s-9.8 8.7-14 19c-0.8 2.1-2.1 4.3-2.1 10.9 0 2.4 0.2 5 1.4 6.5 1 1.3 2.6 2.1 4.3 2.1z"/> <path class="st2" d="m72 15c-1.1-4.9-2.1-8.3-2.1-8.3-0.2-0.6-0.5-1.1-1-1.1-0.5-0.1-0.8 0.1-1.4 0.4-0.7 0.5-5.4 4.2-6.9 5.5 1.6 2.9 2.8 6.6 3.9 9.5 2.3-1.8 3.7-3.4 7.5-6z"/> <path class="st2" d="m99.2 27.4c0.1-0.5 0-1-0.2-1.5-0.3-0.4-0.7-0.7-1.6-0.8-1.9-0.2-9.8 0.5-9.8 0.5-0.1 3.2-0.3 6.4-0.8 9.6 2.3 0.9 4.4 1.8 6.8 3 4.5-6 5.5-9.8 5.6-10.8z"/> <path class="st2" d="m103.5 47.9c0-0.8-0.4-1.4-1.7-2.3-4.9-3.3-10.1-6.1-15.6-8.2-1 4.8-2.4 9.1-4.4 12.6-2.1 3.6-4.7 6.5-7.7 8.3 9.1-0.6 16.8-2.1 22.3-4.7 6.3-3.1 7.1-4.7 7.1-5.7z"/> <path class="st2" d="m83.3 59.8c-1.5 0-2.7 0.3-5.2 0.7-1.8 0.3-3.7 0.5-5.5 0.4-1.1 0-3.6-0.1-3.6-0.1-1.1 0-2.5-0.1-3.8-0.1-2.7 0-6.2 0.1-9.3 1-0.2 0.1-0.4 0.1-0.3 0.3 0 0.2 0.3 0.2 0.5 0.2s2.5-0.2 3.6-0.2c4 0 6.8 0.7 9.5 1.4 2.5 0.6 4.9 1.2 8.2 1.2 3.5 0 6.5-0.4 7.6-1.7 0.5-0.5 0.7-1.2 0.6-1.9-0.3-0.8-0.9-1.3-2.3-1.2z"/> <path class="st2" d="m26.4 48.9c3.4 6 8.3 9.4 13.7 9.6-2.8-2.1-4.9-5.1-6-8.5-1.3-4-1.9-8.7-1.9-14 0-5.2 0.6-10.3 1.6-15.4 0.3-1.1 0.8-1.8 1.6-2.2-5.5-4.1-11.3-6.5-12.6-6.5-0.7 0-1 0.3-1.3 1.1-0.2 0.8-0.9 2.7-0.7 11 0.1 7.1 1.1 17 5.6 24.9z"/> <path class="st2" d="m38.2 21.1c-0.4-0.3-1-1-1.6-0.9s-0.8 0.9-1 1.5c-0.9 4.7-1.4 9.5-1.3 14.3 0.2 5.9 0.6 9.6 1.8 13.3 2.2 7.1 8.7 10.2 12.5 10.2 0.7 0 1.5-0.1 2.2-0.4 0.3-0.1 0.7-0.3 1-0.5-0.3-0.4-0.6-0.8-0.8-1.3-0.8-1.6-1.1-3.5-1.2-5.9 0-4 0.8-8 2.3-11.7-4-10.2-13.5-18.3-13.9-18.6z"/> <path class="st2" d="m53.1 36.7c2.7-5.7 6.8-10.4 9.8-13.4-1.9-7-7.3-16.9-9-19.3-0.2-0.4-0.4-0.6-0.8-0.6s-0.5 0.2-0.8 0.6c-1.7 2.4-7.1 12.3-9 19.3 3.1 3 7.1 7.7 9.8 13.4z"/> <path class="st2" d="m45.7 11.6c-1.5-1.3-6.2-5-6.9-5.5-0.5-0.4-0.8-0.5-1.4-0.4-0.5 0.1-0.8 0.5-1 1.1 0 0-1 3.4-2.1 8.3 3.8 2.6 5.2 4.2 7.5 6 1.1-2.9 2.3-6.6 3.9-9.5z"/> <path class="st2" d="m12.8 38.2c2.4-1.2 4.5-2.1 6.8-3-0.5-3.2-0.8-6.4-0.8-9.6 0 0-7.9-0.8-9.8-0.5-1 0.1-1.3 0.3-1.6 0.8-0.2 0.5-0.3 1-0.2 1.5 0 1 1 4.8 5.6 10.8z"/> <path class="st2" d="m24.5 50c-2-3.5-3.5-7.7-4.4-12.6-5.5 2.1-10.7 4.9-15.6 8.2-1.3 0.9-1.6 1.5-1.7 2.3 0 1 0.8 2.6 7.1 5.6 5.5 2.7 13.2 4.1 22.3 4.7-3-1.7-5.7-4.6-7.7-8.2z"/> <path class="st2" d="m50.3 61.8c-3.1-0.9-6.6-1-9.3-1-1.3 0-2.6 0-3.8 0.1 0 0-2.5 0-3.6 0.1-1.8 0.1-3.7-0.1-5.5-0.4-2.5-0.4-3.7-0.7-5.2-0.7-1.4 0-2 0.4-2.3 1.3-0.1 0.7 0.1 1.4 0.6 1.9 1.1 1.3 4.1 1.7 7.6 1.7 3.3 0 5.7-0.6 8.2-1.2 2.7-0.7 5.4-1.4 9.5-1.4 1.1 0 3.4 0.2 3.6 0.2s0.5 0 0.5-0.2c0.1-0.3-0.1-0.4-0.3-0.4z"/> </svg>
